<svg width="316" height="129" viewBox="0 0 316 129" fill="none" xmlns="http://www.w3.org/2000/svg">
<path d="M36.8018 104.841H11.9885C8.39789 104.841 5.8466 104.043 4.31593 102.426C2.78509 100.81 2.01025 98.224 2.01025 94.7063V33.2884C2.01025 29.6946 2.80392 27.1085 4.37258 25.5304C5.94108 23.9522 8.47354 23.1536 11.9885 23.1536H38.295C42.169 23.1536 45.5328 23.4007 48.3675 23.876C51.2213 24.3704 53.7726 25.2832 56.0214 26.6713C57.949 27.8122 59.631 29.2763 61.124 31.0446C62.598 32.813 63.7129 34.7526 64.4878 36.8822C65.2626 39.0308 65.6595 41.2747 65.6595 43.6514C65.6595 51.8279 61.5964 57.8175 53.4703 61.6014C64.1477 65.0242 69.477 71.6603 69.477 81.5481C69.477 86.1116 68.3051 90.2378 65.9808 93.8886C63.6563 97.5585 60.5191 100.259 56.5695 101.989C54.0938 103.035 51.2591 103.776 48.0463 104.195C44.8336 104.632 41.0729 104.841 36.8018 104.841ZM35.5734 68.5609H18.4517V92.4055H36.1216C47.2526 92.4055 52.8086 88.3744 52.8086 80.3121C52.8086 76.1859 51.3724 73.2005 48.481 71.337C45.6085 69.4927 41.2997 68.5609 35.5734 68.5609ZM18.4517 35.5892V56.6956H33.5325C37.6333 56.6956 40.7893 56.2964 43.0195 55.5167C45.2684 54.7371 46.9692 53.254 48.1597 51.0673C49.0857 49.508 49.5393 47.7586 49.5393 45.8382C49.5393 41.7119 48.0843 38.9738 45.1549 37.6239C42.2447 36.2737 37.7846 35.5892 31.8129 35.5892H18.4517Z" fill="white"/>
<path d="M263.597 91.3834L250.542 40.2109V95.6478C250.542 98.7151 249.84 101.016 248.457 102.549C247.074 104.083 245.236 104.85 242.962 104.85C240.745 104.85 238.926 104.083 237.524 102.568C236.122 101.053 235.421 98.7526 235.421 95.6478V32.0936C235.421 28.5773 236.349 26.2206 238.187 24.9863C240.044 23.7706 242.545 23.1533 245.672 23.1533H250.788C253.857 23.1533 256.074 23.434 257.458 23.9762C258.841 24.5187 259.883 25.51 260.546 26.9314C261.21 28.3529 261.967 30.6721 262.82 33.889L274.644 77.917L286.468 33.889C287.321 30.6721 288.078 28.3529 288.742 26.9314C289.405 25.51 290.428 24.5187 291.811 23.9762C293.194 23.434 295.43 23.1533 298.5 23.1533H303.597C306.743 23.1533 309.244 23.7706 311.101 24.9863C312.939 26.2206 313.867 28.5773 313.867 32.0936V95.6478C313.867 98.7151 313.166 101.016 311.783 102.549C310.4 104.083 308.543 104.85 306.231 104.85C304.052 104.85 302.252 104.083 300.85 102.549C299.447 101.016 298.746 98.7151 298.746 95.6478V40.2109L285.691 91.3834C284.838 94.694 284.156 97.144 283.607 98.6965C283.076 100.23 282.091 101.652 280.651 102.923C279.191 104.214 277.202 104.85 274.644 104.85C272.711 104.85 271.082 104.438 269.755 103.615C268.429 102.792 267.387 101.745 266.648 100.473C265.909 99.1827 265.321 97.7799 264.905 96.2276C264.469 94.6751 264.033 93.048 263.597 91.3834Z" fill="white"/>
<path fill-rule="evenodd" clip-rule="evenodd" d="M152.109 0C181.191 0 199.246 18.1091 204.766 26.1931C210.287 34.2771 185.473 9.95409 156.391 9.95409C127.309 9.95409 123.02 31.1723 99.4515 26.1931C75.8832 21.2139 123.027 0 152.109 0Z" fill="white"/>
<path fill-rule="evenodd" clip-rule="evenodd" d="M137.496 57.0789V65.2907C137.496 69.1863 143.523 65.0367 149.833 65.0446C155.354 65.0988 160.907 69.4807 160.907 65.1307V57.0237C158.535 56.2558 155.844 51.9482 149.814 51.9634C142.703 51.9811 141.116 55.5642 137.496 57.0789Z" fill="white"/>
<path fill-rule="evenodd" clip-rule="evenodd" d="M69.1533 55.5992L69.4868 66.9159C73.3126 65.9256 76.408 66.4125 79.7468 68.7464C79.7169 63.5537 79.687 58.3611 79.6571 53.1685C75.8718 56.0103 73.4252 56.2665 69.1533 55.5992Z" fill="white"/>
<path fill-rule="evenodd" clip-rule="evenodd" d="M229.454 56.2766L229.125 67.4419C225.351 66.4647 222.297 66.9451 219.003 69.2478C219.032 64.1247 219.062 59.0015 219.091 53.8784C222.826 56.6823 225.24 56.935 229.454 56.2766Z" fill="white"/>
<path fill-rule="evenodd" clip-rule="evenodd" d="M190.046 33.7258C208.091 33.7258 222.719 48.3539 222.719 66.3987C222.719 84.4434 208.091 99.0714 190.046 99.0714C172.001 99.0714 157.373 84.4434 157.373 66.3987C157.373 48.3539 172.001 33.7258 190.046 33.7258Z" fill="white"/>
<path fill-rule="evenodd" clip-rule="evenodd" d="M190.046 47.3528C200.958 47.3528 209.804 56.1987 209.804 67.1108C209.804 78.0231 200.958 86.869 190.046 86.869C179.134 86.869 170.288 78.0231 170.288 67.1108C170.288 56.1987 179.134 47.3528 190.046 47.3528Z" fill="#0B354D"/>
<path fill-rule="evenodd" clip-rule="evenodd" d="M108.769 33.7258C126.814 33.7258 141.442 48.3539 141.442 66.3987C141.442 84.4434 126.814 99.0714 108.769 99.0714C90.724 99.0714 76.0959 84.4434 76.0959 66.3987C76.0959 48.3539 90.724 33.7258 108.769 33.7258Z" fill="white"/>
<path fill-rule="evenodd" clip-rule="evenodd" d="M108.768 47.3528C119.681 47.3528 128.527 56.1987 128.527 67.1108C128.527 78.0231 119.681 86.869 108.768 86.869C97.8564 86.869 89.0103 78.0231 89.0103 67.1108C89.0103 56.1987 97.8564 47.3528 108.768 47.3528Z" fill="#0B354D"/>
<path fill-rule="evenodd" clip-rule="evenodd" d="M108.769 59.9888C112.829 59.9888 116.121 63.2804 116.121 67.3409C116.121 71.4012 112.829 74.6928 108.769 74.6928C104.709 74.6928 101.417 71.4012 101.417 67.3409C101.417 63.2804 104.709 59.9888 108.769 59.9888Z" fill="white"/>
<path fill-rule="evenodd" clip-rule="evenodd" d="M190.046 59.759C194.106 59.759 197.398 63.0506 197.398 67.111C197.398 71.1714 194.106 74.4631 190.046 74.4631C185.985 74.4631 182.694 71.1714 182.694 67.111C182.694 63.0506 185.985 59.759 190.046 59.759Z" fill="white"/>
<path d="M230.499 119.118H313.763" stroke="#FEFEFE" stroke-width="2.66683" stroke-miterlimit="2.61313" stroke-linecap="round" stroke-linejoin="round"/>
<path d="M69.4192 119.144H2" stroke="#FEFEFE" stroke-width="2.66683" stroke-miterlimit="2.61313" stroke-linecap="round" stroke-linejoin="round"/>
<path d="M80.2959 128.371V111.285H92.9433V114.173H83.756V117.967H92.299V120.855H83.756V125.484H93.2775V128.371H80.2959ZM101.581 128.371V121.181L95.3172 111.285H99.362L103.403 118.051L107.336 111.285H111.306L105.042 121.205V128.371H101.581ZM113.894 128.371V111.285H126.542V114.173H117.355V117.967H125.898V120.855H117.355V125.484H126.876V128.371H113.894ZM148.253 122.072L151.594 123.098C151.081 124.979 150.226 126.375 149.033 127.29C147.839 128.201 146.328 128.658 144.495 128.658C142.224 128.658 140.358 127.882 138.895 126.331C137.435 124.78 136.703 122.66 136.703 119.968C136.703 117.124 137.439 114.913 138.907 113.338C140.374 111.763 142.307 110.975 144.701 110.975C146.793 110.975 148.492 111.595 149.796 112.832C150.576 113.564 151.156 114.614 151.546 115.986L148.134 116.798C147.931 115.915 147.509 115.215 146.869 114.702C146.225 114.189 145.445 113.934 144.53 113.934C143.262 113.934 142.231 114.388 141.444 115.298C140.653 116.205 140.259 117.677 140.259 119.713C140.259 121.869 140.648 123.408 141.424 124.323C142.204 125.241 143.214 125.699 144.459 125.699C145.377 125.699 146.169 125.408 146.829 124.824C147.489 124.239 147.967 123.324 148.253 122.072ZM155.535 128.371V111.429H158.995V125.484H167.562V128.371H155.535ZM170.779 128.371V111.285H174.239V128.371H170.779ZM178.411 128.371V111.285H181.76L188.791 122.736V111.285H191.989V128.371H188.533L181.609 117.14V128.371H178.411ZM196.407 128.371V111.285H199.868V128.371H196.407ZM214.969 122.072L218.309 123.098C217.796 124.979 216.941 126.375 215.748 127.29C214.555 128.201 213.044 128.658 211.21 128.658C208.939 128.658 207.074 127.882 205.61 126.331C204.151 124.78 203.419 122.66 203.419 119.968C203.419 117.124 204.155 114.913 205.622 113.338C207.09 111.763 209.023 110.975 211.417 110.975C213.509 110.975 215.207 111.595 216.512 112.832C217.291 113.564 217.872 114.614 218.262 115.986L214.849 116.798C214.647 115.915 214.225 115.215 213.585 114.702C212.94 114.189 212.161 113.934 211.246 113.934C209.977 113.934 208.947 114.388 208.16 115.298C207.368 116.205 206.975 117.677 206.975 119.713C206.975 121.869 207.364 123.408 208.14 124.323C208.919 125.241 209.93 125.699 211.174 125.699C212.093 125.699 212.885 125.408 213.545 124.824C214.205 124.239 214.682 123.324 214.969 122.072Z" fill="white"/>
</svg>
