<svg width="61" height="61" viewBox="0 0 61 61" fill="none" xmlns="http://www.w3.org/2000/svg">
<g clip-path="url(#clip0_1141_1056)">
<path d="M60.4287 0.5H0.428711V60.5H60.4287V0.5Z" fill="#00008F"/>
<path d="M37.6505 30.1667L60.4283 0.5H57.0949L34.2061 30.1667H37.6505Z" fill="#FF1721"/>
<path d="M46.3176 43.3887C47.3176 46.2776 49.5398 53.9443 50.4287 54.4998H44.762C44.762 53.8332 44.6509 53.1665 44.5398 52.4998C44.3176 51.6109 42.2065 45.0554 42.2065 45.0554H33.2065L31.762 47.0554C31.762 47.0554 33.4287 52.3887 33.5398 52.6109C33.762 53.0554 34.5398 54.4998 34.5398 54.4998H29.0954C29.0954 54.4998 28.9843 53.7221 28.8732 53.3887C28.8732 53.1665 28.3176 51.6109 28.3176 51.6109C28.3176 51.6109 27.0954 52.9443 26.762 53.6109C26.4287 54.2776 26.3176 54.6109 26.3176 54.6109H22.0954C22.0954 54.6109 21.9843 53.8332 21.8732 53.4998C21.8732 53.2776 21.3176 51.6109 21.3176 51.6109C21.3176 51.6109 20.0954 53.0554 19.762 53.7221C19.4287 54.3887 19.3176 54.7221 19.3176 54.7221H15.0954C15.0954 54.7221 16.3176 53.6109 16.6509 53.0554C17.3176 52.2776 19.9843 48.8332 19.9843 48.8332L18.9843 45.1665H10.0954C10.0954 45.1665 4.98427 51.8332 4.76204 52.0554C4.53982 52.2776 3.09538 54.3887 3.09538 54.6109H0.428711V52.9443L0.539822 52.8332C0.650933 52.7221 4.42871 48.0554 7.87316 43.4998C10.9843 39.4998 13.8732 35.4998 14.2065 35.1665C14.8732 34.2776 15.762 32.2776 15.762 32.2776H20.3176C20.3176 32.2776 20.4287 34.0554 20.5398 34.4998C20.6509 34.8332 23.4287 44.0554 23.5398 44.1665L25.0954 42.1665L22.4287 33.9443C22.4287 33.9443 21.762 32.3887 21.6509 32.1665H26.9843C26.9843 32.6109 26.9843 33.1665 27.2065 33.6109C27.4287 34.2776 28.5398 38.4998 28.5398 38.4998C28.5398 38.4998 32.2065 33.9443 32.4287 33.6109C32.6509 33.1665 32.8732 32.7221 32.8732 32.2776H37.3176C37.3176 32.2776 36.5398 32.8332 35.0954 34.7221C34.6509 35.3887 29.8732 41.3887 29.8732 41.3887C29.8732 41.3887 30.3176 42.8332 30.5398 43.4998C30.5398 43.7221 30.6509 43.8332 30.6509 43.8332C30.6509 43.8332 30.762 43.7221 30.9843 43.4998C32.2065 41.9443 37.762 34.6109 38.0954 34.0554C38.3176 33.4998 38.762 32.9443 38.9843 32.3887H43.3176C43.3176 32.3887 43.4287 33.7221 43.5398 34.0554L46.3176 43.3887ZM39.6509 36.4998C38.9843 37.8332 35.2065 42.4998 35.2065 42.4998H41.2065C41.2065 42.4998 40.0954 38.9443 39.8732 38.1665C39.762 37.4998 39.6509 37.0554 39.6509 36.4998C39.6509 36.3887 39.6509 36.2776 39.6509 36.4998ZM16.5398 36.4998C15.8732 37.8332 12.0954 42.4998 12.0954 42.4998H18.2065C18.2065 42.4998 17.0954 38.9443 16.8732 38.1665C16.6509 37.4998 16.6509 37.0554 16.5398 36.4998C16.6509 36.3887 16.6509 36.2776 16.5398 36.4998ZM25.6509 50.3887L27.3176 48.1665C27.2065 48.0554 26.2065 45.1665 26.2065 45.1665L24.6509 47.2776L25.6509 50.3887Z" fill="white"/>
</g>
<defs>
<clipPath id="clip0_1141_1056">
<rect width="60" height="60" fill="white" transform="translate(0.428711 0.5)"/>
</clipPath>
</defs>
</svg>
